# Blender v3.2.1 OBJ File: 'terrain1.blend'
# www.blender.org
mtllib terrain1.mtl
o Plane
v -20.000000 0.524101 20.000000
v 20.000000 -0.318979 20.000000
v -20.000000 1.553809 -20.000000
v 20.000000 -0.290443 -20.000000
v -20.000000 0.566192 -16.363636
v -20.000000 -0.298181 -12.727272
v -20.000000 -0.834832 -9.090909
v -20.000000 -0.717902 -5.454545
v -20.000000 -0.038849 -1.818181
v -20.000000 0.878900 1.818182
v -20.000000 0.458920 5.454545
v -20.000000 -0.233893 9.090909
v -20.000000 -0.501605 12.727272
v -20.000000 -0.191270 16.363636
v -16.363636 -0.008625 20.000000
v -12.727272 -0.102706 20.000000
v -9.090909 0.286646 20.000000
v -5.454545 1.001725 20.000000
v -1.818181 1.882298 20.000000
v 1.818182 1.010919 20.000000
v 5.454545 0.069352 20.000000
v 9.090909 -0.943423 20.000000
v 12.727272 -1.649941 20.000000
v 16.363636 -1.275021 20.000000
v 20.000000 0.138818 16.363636
v 20.000000 -0.933809 12.727272
v 20.000000 -1.851267 9.090909
v 20.000000 -1.568839 5.454545
v 20.000000 -0.552803 1.818181
v 20.000000 0.532226 -1.818182
v 20.000000 0.894301 -5.454545
v 20.000000 -0.021284 -9.090909
v 20.000000 -0.698585 -12.727272
v 20.000000 -0.819385 -16.363636
v 16.363636 -0.480055 -20.000000
v 12.727272 -0.100725 -20.000000
v 9.090909 0.435804 -20.000000
v 5.454545 0.123227 -20.000000
v 1.818181 0.260798 -20.000000
v -1.818182 0.792567 -20.000000
v -5.454545 1.566730 -20.000000
v -9.090909 2.292458 -20.000000
v -12.727272 2.381296 -20.000000
v -16.363636 1.908700 -20.000000
v -16.363636 -0.953392 16.363636
v -16.363636 -1.472700 12.727272
v -16.363636 -1.017771 9.090909
v -16.363636 -0.088161 5.454545
v -16.363636 0.665374 1.818181
v -16.363636 0.155549 -1.818182
v -16.363636 0.061755 -5.454545
v -16.363636 0.206571 -9.090909
v -16.363636 0.566064 -12.727272
v -16.363636 1.235542 -16.363636
v -12.727272 -1.110013 16.363636
v -12.727272 -1.728369 12.727272
v -12.727272 -1.182020 9.090909
v -12.727272 -0.185472 5.454545
v -12.727272 -0.088382 1.818181
v -12.727272 -0.812325 -1.818182
v -12.727272 -0.964129 -5.454545
v -12.727272 -0.414849 -9.090909
v -12.727272 0.469027 -12.727272
v -12.727272 1.469973 -16.363636
v -9.090909 -0.512429 16.363636
v -9.090909 -0.883278 12.727272
v -9.090909 -0.562102 9.090909
v -9.090909 0.215771 5.454545
v -9.090909 -0.477497 1.818181
v -9.090909 -1.440348 -1.818182
v -9.090909 -1.704065 -5.454545
v -9.090909 -0.880596 -9.090909
v -9.090909 0.162655 -12.727272
v -9.090909 1.246372 -16.363636
v -5.454545 0.406393 16.363636
v -5.454545 0.166547 12.727272
v -5.454545 0.372652 9.090909
v -5.454545 0.707709 5.454545
v -5.454545 -0.299219 1.818181
v -5.454545 -1.130407 -1.818182
v -5.454545 -1.322531 -5.454545
v -5.454545 -0.662776 -9.090909
v -5.454545 0.300474 -12.727272
v -5.454545 0.971742 -16.363636
v -1.818181 1.427100 16.363636
v -1.818182 1.253060 12.727272
v -1.818182 1.402194 9.090909
v -1.818182 1.177040 5.454545
v -1.818182 0.341595 1.818181
v -1.818182 -0.240130 -1.818182
v -1.818182 -0.351126 -5.454545
v -1.818182 -0.304541 -9.090909
v -1.818182 -0.414642 -12.727272
v -1.818182 0.021052 -16.363636
v 1.818182 1.478883 16.363636
v 1.818182 1.726304 12.727272
v 1.818182 0.970851 9.090909
v 1.818182 0.451318 5.454545
v 1.818182 0.302151 1.818181
v 1.818182 0.577683 -1.818182
v 1.818182 -0.366767 -5.454545
v 1.818182 -1.234673 -9.090909
v 1.818181 -1.437112 -12.727272
v 1.818181 -0.728923 -16.363636
v 5.454545 0.553367 16.363636
v 5.454545 1.172354 12.727272
v 5.454545 0.269719 9.090909
v 5.454545 -0.417979 5.454545
v 5.454545 -0.635439 1.818181
v 5.454545 -0.242420 -1.818182
v 5.454545 -0.548078 -5.454545
v 5.454545 -1.572438 -9.090909
v 5.454545 -1.876262 -12.727272
v 5.454545 -0.952088 -16.363636
v 9.090909 -0.231870 16.363636
v 9.090909 0.716240 12.727272
v 9.090909 -0.097047 9.090909
v 9.090909 -0.938702 5.454545
v 9.090909 -1.243248 1.818181
v 9.090909 -0.711283 -1.818182
v 9.090909 -0.144660 -5.454545
v 9.090909 -0.888170 -9.090909
v 9.090909 -1.041688 -12.727272
v 9.090909 -0.466861 -16.363636
v 12.727272 -0.644176 16.363636
v 12.727272 0.440046 12.727272
v 12.727272 0.020978 9.090909
v 12.727272 -0.762531 5.454545
v 12.727272 -1.030111 1.818181
v 12.727272 -0.555610 -1.818182
v 12.727272 0.306963 -5.454545
v 12.727272 0.110350 -9.090909
v 12.727272 -0.470350 -12.727272
v 12.727272 -0.576761 -16.363636
v 16.363636 -0.445236 16.363636
v 16.363636 -0.294614 12.727272
v 16.363636 -0.817256 9.090909
v 16.363636 -0.689521 5.454545
v 16.363636 -0.215263 1.818181
v 16.363636 0.115359 -1.818182
v 16.363636 0.774037 -5.454545
v 16.363636 -0.188707 -9.090909
v 16.363636 -0.936947 -12.727272
v 16.363636 -1.077852 -16.363636
vt 0.909091 0.909091
vt 1.000000 0.909091
vt 1.000000 1.000000
vt 0.909091 1.000000
vt 0.000000 0.909091
vt 0.090909 0.909091
vt 0.090909 1.000000
vt 0.000000 1.000000
vt 0.181818 0.909091
vt 0.181818 1.000000
vt 0.272727 0.909091
vt 0.272727 1.000000
vt 0.363636 0.909091
vt 0.363636 1.000000
vt 0.454545 0.909091
vt 0.454545 1.000000
vt 0.545455 0.909091
vt 0.545455 1.000000
vt 0.636364 0.909091
vt 0.636364 1.000000
vt 0.727273 0.909091
vt 0.727273 1.000000
vt 0.818182 0.909091
vt 0.818182 1.000000
vt 0.000000 0.000000
vt 0.090909 0.000000
vt 0.090909 0.090909
vt 0.000000 0.090909
vt 0.090909 0.181818
vt 0.000000 0.181818
vt 0.090909 0.272727
vt 0.000000 0.272727
vt 0.090909 0.363636
vt 0.000000 0.363636
vt 0.090909 0.454545
vt 0.000000 0.454545
vt 0.090909 0.545455
vt 0.000000 0.545455
vt 0.090909 0.636364
vt 0.000000 0.636364
vt 0.090909 0.727273
vt 0.000000 0.727273
vt 0.090909 0.818182
vt 0.000000 0.818182
vt 0.181818 0.000000
vt 0.181818 0.090909
vt 0.181818 0.181818
vt 0.181818 0.272727
vt 0.181818 0.363636
vt 0.181818 0.454545
vt 0.181818 0.545455
vt 0.181818 0.636364
vt 0.181818 0.727273
vt 0.181818 0.818182
vt 0.272727 0.000000
vt 0.272727 0.090909
vt 0.272727 0.181818
vt 0.272727 0.272727
vt 0.272727 0.363636
vt 0.272727 0.454545
vt 0.272727 0.545455
vt 0.272727 0.636364
vt 0.272727 0.727273
vt 0.272727 0.818182
vt 0.363636 0.000000
vt 0.363636 0.090909
vt 0.363636 0.181818
vt 0.363636 0.272727
vt 0.363636 0.363636
vt 0.363636 0.454545
vt 0.363636 0.545455
vt 0.363636 0.636364
vt 0.363636 0.727273
vt 0.363636 0.818182
vt 0.454545 0.000000
vt 0.454545 0.090909
vt 0.454545 0.181818
vt 0.454545 0.272727
vt 0.454545 0.363636
vt 0.454545 0.454545
vt 0.454545 0.545455
vt 0.454545 0.636364
vt 0.454545 0.727273
vt 0.454545 0.818182
vt 0.545455 0.000000
vt 0.545455 0.090909
vt 0.545455 0.181818
vt 0.545455 0.272727
vt 0.545455 0.363636
vt 0.545455 0.454545
vt 0.545455 0.545455
vt 0.545455 0.636364
vt 0.545455 0.727273
vt 0.545455 0.818182
vt 0.636364 0.000000
vt 0.636364 0.090909
vt 0.636364 0.181818
vt 0.636364 0.272727
vt 0.636364 0.363636
vt 0.636364 0.454545
vt 0.636364 0.545455
vt 0.636364 0.636364
vt 0.636364 0.727273
vt 0.636364 0.818182
vt 0.727273 0.000000
vt 0.727273 0.090909
vt 0.727273 0.181818
vt 0.727273 0.272727
vt 0.727273 0.363636
vt 0.727273 0.454545
vt 0.727273 0.545455
vt 0.727273 0.636364
vt 0.727273 0.727273
vt 0.727273 0.818182
vt 0.818182 0.000000
vt 0.818182 0.090909
vt 0.818182 0.181818
vt 0.818182 0.272727
vt 0.818182 0.363636
vt 0.818182 0.454545
vt 0.818182 0.545455
vt 0.818182 0.636364
vt 0.818182 0.727273
vt 0.818182 0.818182
vt 0.909091 0.000000
vt 0.909091 0.090909
vt 0.909091 0.181818
vt 0.909091 0.272727
vt 0.909091 0.363636
vt 0.909091 0.454545
vt 0.909091 0.545455
vt 0.909091 0.636364
vt 0.909091 0.727273
vt 0.909091 0.818182
vt 1.000000 0.000000
vt 1.000000 0.090909
vt 1.000000 0.181818
vt 1.000000 0.272727
vt 1.000000 0.363636
vt 1.000000 0.454545
vt 1.000000 0.545455
vt 1.000000 0.636364
vt 1.000000 0.727273
vt 1.000000 0.818182
vn 0.0305 0.9979 0.0572
vn -0.0647 0.9962 0.0590
vn -0.0608 0.9864 0.1528
vn 0.0294 0.9883 0.1495
vn -0.1701 0.9625 0.2112
vn -0.1125 0.9701 0.2152
vn -0.1150 0.9695 0.2162
vn -0.1360 0.9658 0.2206
vn -0.0007 0.9700 0.2431
vn -0.0261 0.9713 0.2366
vn 0.0662 0.9667 0.2471
vn 0.0864 0.9670 0.2396
vn 0.1501 0.9691 0.1959
vn 0.1793 0.9633 0.1997
vn 0.2124 0.9609 0.1779
vn 0.1987 0.9583 0.2055
vn 0.1354 0.9663 0.2189
vn 0.1094 0.9614 0.2526
vn -0.0365 0.9704 0.2387
vn -0.0292 0.9631 0.2677
vn -0.0643 0.9817 0.1791
vn -0.0096 0.9744 0.2247
vn 0.0693 0.9934 0.0909
vn 0.1028 0.9808 0.1656
vn 0.1710 0.9606 -0.2193
vn 0.1033 0.9654 -0.2395
vn 0.1233 0.9747 -0.1862
vn 0.2006 0.9655 -0.1661
vn 0.1447 0.9894 -0.0081
vn 0.2332 0.9724 -0.0072
vn 0.1259 0.9763 0.1761
vn 0.2046 0.9662 0.1566
vn 0.1080 0.9765 0.1867
vn 0.1389 0.9726 0.1862
vn 0.1131 0.9934 -0.0209
vn 0.0537 0.9984 -0.0169
vn 0.0925 0.9878 -0.1255
vn -0.0654 0.9867 -0.1488
vn 0.0282 0.9995 -0.0104
vn -0.1888 0.9807 -0.0499
vn -0.0460 0.9941 0.0984
vn -0.2477 0.9670 0.0606
vn -0.0950 0.9790 0.1803
vn -0.2278 0.9606 0.1593
vn -0.0494 0.9670 -0.2498
vn -0.0591 0.9787 -0.1968
vn -0.0692 0.9976 -0.0086
vn -0.0604 0.9806 0.1864
vn 0.0028 0.9910 0.1336
vn 0.1211 0.9886 -0.0892
vn 0.2032 0.9718 -0.1195
vn 0.2081 0.9770 0.0474
vn 0.1457 0.9737 0.1752
vn 0.0628 0.9710 0.2308
vn -0.1741 0.9618 -0.2111
vn -0.2002 0.9667 -0.1594
vn -0.2289 0.9734 -0.0069
vn -0.1966 0.9700 0.1430
vn -0.1068 0.9941 0.0182
vn -0.0047 0.9809 -0.1945
vn 0.0403 0.9885 -0.1458
vn 0.0428 0.9969 0.0662
vn 0.0342 0.9734 0.2265
vn 0.0359 0.9655 0.2579
vn -0.2335 0.9590 -0.1607
vn -0.2513 0.9611 -0.1148
vn -0.2705 0.9627 -0.0047
vn -0.2339 0.9697 0.0706
vn -0.1597 0.9841 -0.0781
vn -0.1264 0.9664 -0.2238
vn -0.1529 0.9793 -0.1327
vn -0.1510 0.9873 0.0485
vn -0.0656 0.9832 0.1702
vn 0.0617 0.9794 0.1924
vn -0.0706 0.9951 -0.0697
vn -0.1243 0.9912 -0.0464
vn -0.1608 0.9868 -0.0203
vn -0.0836 0.9960 -0.0312
vn -0.0226 0.9929 -0.1165
vn -0.0885 0.9842 -0.1531
vn -0.1673 0.9804 -0.1043
vn -0.1035 0.9933 -0.0505
vn 0.0651 0.9978 0.0150
vn 0.1923 0.9769 0.0937
vn 0.1814 0.9812 0.0653
vn 0.1218 0.9905 0.0638
vn 0.0724 0.9964 -0.0440
vn 0.1323 0.9810 -0.1420
vn 0.1778 0.9777 -0.1114
vn 0.1202 0.9922 -0.0339
vn 0.0394 0.9971 -0.0658
vn 0.0563 0.9840 -0.1692
vn 0.1415 0.9827 -0.1194
vn 0.1726 0.9828 0.0653
vn 0.2418 0.9599 0.1421
vn 0.2117 0.9654 0.1523
vn 0.1631 0.9861 -0.0319
vn 0.1509 0.9675 -0.2030
vn 0.1805 0.9761 -0.1214
vn 0.1937 0.9808 0.0237
vn 0.1326 0.9910 0.0201
vn 0.0166 0.9875 -0.1570
vn -0.0437 0.9870 -0.1545
vn -0.0463 0.9963 0.0718
vn 0.1916 0.9622 0.1937
vn 0.1607 0.9632 0.2155
vn 0.0998 0.9948 0.0203
vn 0.0526 0.9774 -0.2049
vn 0.0449 0.9887 -0.1432
vn 0.0488 0.9984 0.0282
vn 0.0061 0.9923 0.1233
vn -0.1048 0.9940 -0.0326
vn -0.1881 0.9734 -0.1308
vn -0.1649 0.9859 0.0269
vn 0.0353 0.9708 0.2372
vn 0.0589 0.9720 0.2275
vn 0.1003 0.9943 0.0362
vn 0.0748 0.9857 -0.1511
vn -0.0277 0.9955 -0.0902
vn -0.1059 0.9932 0.0487
vn -0.1209 0.9797 0.1598
vn -0.1145 0.9930 0.0284
vn -0.0814 0.9866 -0.1415
vn -0.0102 0.9980 -0.0631
vn -0.1390 0.9680 0.2088
vn -0.0517 0.9919 0.1161
vn 0.1293 0.9892 -0.0688
vn 0.1984 0.9761 -0.0882
vn 0.1012 0.9936 0.0493
vn -0.0433 0.9901 0.1332
vn -0.1088 0.9809 0.1610
vn -0.0727 0.9972 -0.0171
vn -0.0029 0.9808 -0.1950
vn 0.0281 0.9935 -0.1103
vn -0.2041 0.9640 0.1707
vn -0.1009 0.9946 0.0241
vn 0.1177 0.9801 -0.1596
vn 0.2392 0.9687 -0.0662
vn 0.2099 0.9697 0.1248
vn 0.0772 0.9777 0.1954
vn -0.0423 0.9855 0.1646
vn -0.0567 0.9968 -0.0564
vn -0.0464 0.9741 -0.2213
vn -0.0616 0.9915 -0.1147
usemtl None
s 1
f 144/1/1 34/2/2 4/3/3 35/4/4
f 5/5/5 54/6/6 44/7/7 3/8/8
f 54/6/6 64/9/9 43/10/10 44/7/7
f 64/9/9 74/11/11 42/12/12 43/10/10
f 74/11/11 84/13/13 41/14/14 42/12/12
f 84/13/13 94/15/15 40/16/16 41/14/14
f 94/15/15 104/17/17 39/18/18 40/16/16
f 104/17/17 114/19/19 38/20/20 39/18/18
f 114/19/19 124/21/21 37/22/22 38/20/20
f 124/21/21 134/23/23 36/24/24 37/22/22
f 134/23/23 144/1/1 35/4/4 36/24/24
f 1/25/25 15/26/26 45/27/27 14/28/28
f 14/28/28 45/27/27 46/29/29 13/30/30
f 13/30/30 46/29/29 47/31/31 12/32/32
f 12/32/32 47/31/31 48/33/33 11/34/34
f 11/34/34 48/33/33 49/35/35 10/36/36
f 10/36/36 49/35/35 50/37/37 9/38/38
f 9/38/38 50/37/37 51/39/39 8/40/40
f 8/40/40 51/39/39 52/41/41 7/42/42
f 7/42/42 52/41/41 53/43/43 6/44/44
f 6/44/44 53/43/43 54/6/6 5/5/5
f 15/26/26 16/45/45 55/46/46 45/27/27
f 45/27/27 55/46/46 56/47/47 46/29/29
f 46/29/29 56/47/47 57/48/48 47/31/31
f 47/31/31 57/48/48 58/49/49 48/33/33
f 48/33/33 58/49/49 59/50/50 49/35/35
f 49/35/35 59/50/50 60/51/51 50/37/37
f 50/37/37 60/51/51 61/52/52 51/39/39
f 51/39/39 61/52/52 62/53/53 52/41/41
f 52/41/41 62/53/53 63/54/54 53/43/43
f 53/43/43 63/54/54 64/9/9 54/6/6
f 16/45/45 17/55/55 65/56/56 55/46/46
f 55/46/46 65/56/56 66/57/57 56/47/47
f 56/47/47 66/57/57 67/58/58 57/48/48
f 57/48/48 67/58/58 68/59/59 58/49/49
f 58/49/49 68/59/59 69/60/60 59/50/50
f 59/50/50 69/60/60 70/61/61 60/51/51
f 60/51/51 70/61/61 71/62/62 61/52/52
f 61/52/52 71/62/62 72/63/63 62/53/53
f 62/53/53 72/63/63 73/64/64 63/54/54
f 63/54/54 73/64/64 74/11/11 64/9/9
f 17/55/55 18/65/65 75/66/66 65/56/56
f 65/56/56 75/66/66 76/67/67 66/57/57
f 66/57/57 76/67/67 77/68/68 67/58/58
f 67/58/58 77/68/68 78/69/69 68/59/59
f 68/59/59 78/69/69 79/70/70 69/60/60
f 69/60/60 79/70/70 80/71/71 70/61/61
f 70/61/61 80/71/71 81/72/72 71/62/62
f 71/62/62 81/72/72 82/73/73 72/63/63
f 72/63/63 82/73/73 83/74/74 73/64/64
f 73/64/64 83/74/74 84/13/13 74/11/11
f 18/65/65 19/75/75 85/76/76 75/66/66
f 75/66/66 85/76/76 86/77/77 76/67/67
f 76/67/67 86/77/77 87/78/78 77/68/68
f 77/68/68 87/78/78 88/79/79 78/69/69
f 78/69/69 88/79/79 89/80/80 79/70/70
f 79/70/70 89/80/80 90/81/81 80/71/71
f 80/71/71 90/81/81 91/82/82 81/72/72
f 81/72/72 91/82/82 92/83/83 82/73/73
f 82/73/73 92/83/83 93/84/84 83/74/74
f 83/74/74 93/84/84 94/15/15 84/13/13
f 19/75/75 20/85/85 95/86/86 85/76/76
f 85/76/76 95/86/86 96/87/87 86/77/77
f 86/77/77 96/87/87 97/88/88 87/78/78
f 87/78/78 97/88/88 98/89/89 88/79/79
f 88/79/79 98/89/89 99/90/90 89/80/80
f 89/80/80 99/90/90 100/91/91 90/81/81
f 90/81/81 100/91/91 101/92/92 91/82/82
f 91/82/82 101/92/92 102/93/93 92/83/83
f 92/83/83 102/93/93 103/94/94 93/84/84
f 93/84/84 103/94/94 104/17/17 94/15/15
f 20/85/85 21/95/95 105/96/96 95/86/86
f 95/86/86 105/96/96 106/97/97 96/87/87
f 96/87/87 106/97/97 107/98/98 97/88/88
f 97/88/88 107/98/98 108/99/99 98/89/89
f 98/89/89 108/99/99 109/100/100 99/90/90
f 99/90/90 109/100/100 110/101/101 100/91/91
f 100/91/91 110/101/101 111/102/102 101/92/92
f 101/92/92 111/102/102 112/103/103 102/93/93
f 102/93/93 112/103/103 113/104/104 103/94/94
f 103/94/94 113/104/104 114/19/19 104/17/17
f 21/95/95 22/105/105 115/106/106 105/96/96
f 105/96/96 115/106/106 116/107/107 106/97/97
f 106/97/97 116/107/107 117/108/108 107/98/98
f 107/98/98 117/108/108 118/109/109 108/99/99
f 108/99/99 118/109/109 119/110/110 109/100/100
f 109/100/100 119/110/110 120/111/111 110/101/101
f 110/101/101 120/111/111 121/112/112 111/102/102
f 111/102/102 121/112/112 122/113/113 112/103/103
f 112/103/103 122/113/113 123/114/114 113/104/104
f 113/104/104 123/114/114 124/21/21 114/19/19
f 22/105/105 23/115/115 125/116/116 115/106/106
f 115/106/106 125/116/116 126/117/117 116/107/107
f 116/107/107 126/117/117 127/118/118 117/108/108
f 117/108/108 127/118/118 128/119/119 118/109/109
f 118/109/109 128/119/119 129/120/120 119/110/110
f 119/110/110 129/120/120 130/121/121 120/111/111
f 120/111/111 130/121/121 131/122/122 121/112/112
f 121/112/112 131/122/122 132/123/123 122/113/113
f 122/113/113 132/123/123 133/124/124 123/114/114
f 123/114/114 133/124/124 134/23/23 124/21/21
f 23/115/115 24/125/125 135/126/126 125/116/116
f 125/116/116 135/126/126 136/127/127 126/117/117
f 126/117/117 136/127/127 137/128/128 127/118/118
f 127/118/118 137/128/128 138/129/129 128/119/119
f 128/119/119 138/129/129 139/130/130 129/120/120
f 129/120/120 139/130/130 140/131/131 130/121/121
f 130/121/121 140/131/131 141/132/132 131/122/122
f 131/122/122 141/132/132 142/133/133 132/123/123
f 132/123/123 142/133/133 143/134/134 133/124/124
f 133/124/124 143/134/134 144/1/1 134/23/23
f 24/125/125 2/135/135 25/136/136 135/126/126
f 135/126/126 25/136/136 26/137/137 136/127/127
f 136/127/127 26/137/137 27/138/138 137/128/128
f 137/128/128 27/138/138 28/139/139 138/129/129
f 138/129/129 28/139/139 29/140/140 139/130/130
f 139/130/130 29/140/140 30/141/141 140/131/131
f 140/131/131 30/141/141 31/142/142 141/132/132
f 141/132/132 31/142/142 32/143/143 142/133/133
f 142/133/133 32/143/143 33/144/144 143/134/134
f 143/134/134 33/144/144 34/2/2 144/1/1
